<?xml version="1.0" encoding="UTF-8" standalone="no"?>
<svg
   xmlns:osb="http://www.openswatchbook.org/uri/2009/osb"
   xmlns:dc="http://purl.org/dc/elements/1.1/"
   xmlns:cc="http://creativecommons.org/ns#"
   xmlns:rdf="http://www.w3.org/1999/02/22-rdf-syntax-ns#"
   xmlns:svg="http://www.w3.org/2000/svg"
   xmlns="http://www.w3.org/2000/svg"
   xmlns:xlink="http://www.w3.org/1999/xlink"
   xmlns:sodipodi="http://sodipodi.sourceforge.net/DTD/sodipodi-0.dtd"
   xmlns:inkscape="http://www.inkscape.org/namespaces/inkscape"
   inkscape:export-ydpi="193.34895"
   inkscape:export-xdpi="193.34895"
   inkscape:export-filename="/Users/work/Downloads/sailfishslots_172x172.png"
   inkscape:version="1.0 (4035a4f, 2020-05-01)"
   sodipodi:docname="sailfishslots.svg"
   id="svg41"
   xml:space="preserve"
   enable-background="new 0 0 86 86"
   viewBox="0 0 86 86"
   height="86px"
   width="86px"
   y="0px"
   x="0px"
   version="1.1"><metadata
   id="metadata47"><rdf:RDF><cc:Work
       rdf:about=""><dc:format>image/svg+xml</dc:format><dc:type
         rdf:resource="http://purl.org/dc/dcmitype/StillImage" /><dc:title></dc:title></cc:Work></rdf:RDF></metadata><defs
   id="defs45"><linearGradient
     id="linearGradient2969"
     inkscape:collect="always"><stop
       id="stop2965"
       offset="0"
       style="stop-color:#ffffff;stop-opacity:1;" /><stop
       id="stop2967"
       offset="1"
       style="stop-color:#ffffff;stop-opacity:0;" /></linearGradient><linearGradient
     osb:paint="solid"
     id="linearGradient2923"><stop
       id="stop2921"
       offset="0"
       style="stop-color:#bf0606;stop-opacity:1;" /></linearGradient><linearGradient
     gradientUnits="userSpaceOnUse"
     y2="43"
     x2="85.699997"
     y1="43"
     x1="0.30000001"
     id="linearGradient912"
     xlink:href="#SVGID_1_"
     inkscape:collect="always" /><radialGradient
     gradientUnits="userSpaceOnUse"
     gradientTransform="matrix(1,0,0,1.0936182,5.3319384,-8.2745143)"
     r="4.0109897"
     fy="40.214161"
     fx="23.424366"
     cy="40.214161"
     cx="23.424366"
     id="radialGradient2975"
     xlink:href="#linearGradient2969"
     inkscape:collect="always" /></defs><sodipodi:namedview
   inkscape:snap-midpoints="true"
   inkscape:object-paths="true"
   inkscape:snap-nodes="true"
   inkscape:current-layer="layer2"
   inkscape:window-maximized="0"
   inkscape:window-y="38"
   inkscape:window-x="326"
   inkscape:cy="59.76525"
   inkscape:cx="-5.8661585"
   inkscape:zoom="3.0216482"
   showgrid="false"
   id="namedview43"
   inkscape:window-height="930"
   inkscape:window-width="1349"
   inkscape:pageshadow="2"
   inkscape:pageopacity="0"
   guidetolerance="10"
   gridtolerance="10"
   objecttolerance="10"
   borderopacity="1"
   bordercolor="#666666"
   pagecolor="#ffffff" />
<g
   display="none"
   id="Layer_2">
</g>
<g
   id="Layer_1">
	<linearGradient
   y2="0.7171"
   x2="85.2829"
   y1="73.1935"
   x1="12.8065"
   gradientUnits="userSpaceOnUse"
   id="SVGID_1_">
		<stop
   id="stop27"
   style="stop-color:#b89134;stop-opacity:1"
   offset="0" />
		<stop
   id="stop29"
   style="stop-color:#e8ff2f;stop-opacity:1"
   offset="0.9951" />
	</linearGradient>
	<path
   style="fill:url(#linearGradient912);fill-opacity:1.0"
   id="path32"
   d="M85.699,1.723c0-0.786-0.637-1.423-1.423-1.423c0,0-40.641,0-41.276,0C19.417,0.3,0.3,19.417,0.3,43   c0,23.582,19.117,42.7,42.7,42.7S85.7,66.582,85.7,43C85.7,42.364,85.699,1.723,85.699,1.723z"
   fill="url(#SVGID_1_)" />
	<g
   id="g36">
		<circle
   style="fill:none"
   id="circle34"
   r="32.025"
   cy="43"
   cx="43"
   fill="#FFA6A3" />
	</g>
	
</g><g
   inkscape:label="Layer 1"
   id="layer1"
   inkscape:groupmode="layer"><ellipse
     ry="9.0680275"
     rx="10.355102"
     cy="38.787754"
     cx="31.533333"
     id="path923"
     style="fill:none;fill-opacity:1" /><ellipse
     ry="1.170068"
     rx="0.93605441"
     cy="38.612244"
     cx="28.783674"
     id="path925"
     style="fill:none;fill-opacity:1" /></g>
<path
   d="M 44.813606,38.436733 A 18.077551,15.269387 0 0 1 26.750736,53.706115 18.077551,15.269387 0 0 1 8.6585283,38.461534 18.077551,15.269387 0 0 1 26.692013,23.167391 18.077551,15.269387 0 0 1 44.813511,38.387132 l -18.077456,0.0496 z"
   sodipodi:arc-type="slice"
   sodipodi:end="6.2799369"
   sodipodi:start="0"
   sodipodi:ry="15.269387"
   sodipodi:rx="18.077551"
   sodipodi:cy="38.436733"
   sodipodi:cx="26.736055"
   sodipodi:type="arc"
   id="path929"
   style="fill:none;fill-opacity:1" /><rect
   y="21.529251"
   x="29.719728"
   height="37.710575"
   width="40.88224"
   id="rect936"
   style="fill:none;fill-opacity:1" /><rect
   ry="0"
   y="19.57452"
   x="12.870749"
   height="38.811871"
   width="62.130615"
   id="rect938"
   style="fill:none;fill-opacity:1" /><path
   d="M 47.16187,40.830395 A 12.110204,11.87619 0 0 1 35.061495,52.706581 12.110204,11.87619 0 0 1 22.941478,40.849672 12.110204,11.87619 0 0 1 35.022181,28.95424 12.110204,11.87619 0 0 1 47.161806,40.791841 l -12.11014,0.03855 z"
   sodipodi:arc-type="slice"
   sodipodi:end="6.279939"
   sodipodi:start="0"
   sodipodi:ry="11.87619"
   sodipodi:rx="12.110204"
   sodipodi:cy="40.830395"
   sodipodi:cx="35.051666"
   sodipodi:type="arc"
   id="path955"
   style="fill:#bf0606;fill-opacity:1" /><path
   style="fill:#bf0606;fill-opacity:1"
   id="path955-3"
   sodipodi:type="arc"
   sodipodi:cx="53.421734"
   sodipodi:cy="53.876652"
   sodipodi:rx="12.110204"
   sodipodi:ry="11.87619"
   sodipodi:start="0"
   sodipodi:end="6.279939"
   sodipodi:arc-type="slice"
   d="M 65.531938,53.876652 A 12.110204,11.87619 0 0 1 53.431562,65.752838 12.110204,11.87619 0 0 1 41.311546,53.895929 12.110204,11.87619 0 0 1 53.392249,42.000497 12.110204,11.87619 0 0 1 65.531874,53.838098 l -12.11014,0.03855 z" /><path
   d="m 42.58855,30.777015 c 0.590771,-0.949493 1.224423,-1.876724 1.97796,-2.706818 0.430485,-0.474221 0.889093,-0.922132 1.333639,-1.383198 2.398901,-2.307779 4.972564,-4.432515 7.639971,-6.422239 1.380272,-1.029598 2.039873,-1.46557 3.429404,-2.422293 1.228907,-0.828246 2.47768,-1.627059 3.756351,-2.376405 0.281557,-0.165002 0.551597,-0.35381 0.850256,-0.485352 0.976725,-0.430191 -2.199515,1.203894 -0.124057,0.125847 0.446445,-0.215626 0.892957,-0.44698 1.374387,-0.576753 0.314864,-0.08487 0.629545,-0.132236 0.950321,-0.188538 0.985335,-0.135072 1.970463,-0.273566 2.960294,-0.371726 0.514053,-0.05942 1.02552,-0.137145 1.542042,-0.172047 0,0 1.363345,-1.004444 1.363345,-1.004444 v 0 c -0.534482,0.03507 -1.06246,0.109304 -1.590537,0.1991 -0.997105,0.11918 -1.990861,0.263249 -2.988084,0.381415 -0.13383,0.02072 -0.786744,0.119472 -0.935206,0.15128 -0.511806,0.109655 -0.978104,0.355191 -1.441433,0.589301 -2.352008,1.258615 -4.636072,2.640992 -6.826296,4.164605 -1.35091,0.949147 -1.957091,1.357996 -3.302871,2.37824 -2.680996,2.03248 -5.267193,4.193881 -7.737836,6.477228 -0.510825,0.492644 -1.038158,0.968727 -1.532477,1.477932 -0.49623,0.511175 -1.023881,1.184268 -1.465569,1.757693 -0.226474,0.294021 -0.435798,0.601254 -0.668548,0.890332 -0.04997,0.06206 -0.106726,0.118349 -0.160088,0.177524 0,0 1.595032,-0.660684 1.595032,-0.660684 z"
   id="path974"
   style="fill:#bf9706;fill-opacity:1" /><path
   d="m 59.441815,42.946181 c -0.40869,-0.22558 -0.79612,-0.535538 -1.103885,-0.888368 -0.09992,-0.114553 -0.186373,-0.240192 -0.27956,-0.360288 -0.840861,-1.325388 -0.925922,-2.837514 -0.983945,-4.361449 -0.03768,-1.736696 0.0051,-3.472681 0.146256,-5.20378 0.195291,-1.565435 0.450913,-3.129522 0.872629,-4.651783 0.08861,-0.319838 0.192977,-0.635098 0.289466,-0.952647 0.499292,-1.681073 1.275329,-3.249928 2.121302,-4.778237 0.706321,-1.246344 1.461493,-2.463402 2.314948,-3.614353 0.941422,-1.135723 1.978726,-2.191268 3.052187,-3.201829 0.57186,-0.503794 0.540119,-0.516319 1.205629,-0.931289 0.228326,-0.14237 0.432988,-0.379698 0.701318,-0.399708 0.247255,-0.01844 -0.420421,0.262957 -0.630631,0.394436 0,0 1.195148,-0.960615 1.195148,-0.960615 v 0 c -0.66146,0.370505 -1.325099,0.737149 -1.984382,1.111515 -0.493419,0.280183 -0.921252,0.528688 -1.366746,0.883506 -0.186035,0.148169 -0.351486,0.320483 -0.52723,0.480725 -1.077761,1.034224 -2.152392,2.081389 -3.089563,3.247366 -0.836488,1.149834 -1.552079,2.377998 -2.257955,3.611175 -0.303652,0.552806 -0.48498,0.865502 -0.75883,1.433322 -0.521002,1.080285 -0.949758,2.205207 -1.300724,3.351501 -0.09409,0.318979 -0.195613,0.635858 -0.282269,0.956935 -0.415665,1.540105 -0.710643,3.118294 -0.913253,4.699424 -0.122961,1.732551 -0.155256,3.468358 -0.110692,5.204963 0.03349,0.888188 0.04069,1.787312 0.223293,2.661522 0.134814,0.645434 0.379684,1.265294 0.689829,1.845033 0.09074,0.129702 0.173905,0.265048 0.272219,0.389107 0.299819,0.37833 0.684798,0.687185 1.061952,0.98358 0,0 1.443489,-0.949764 1.443489,-0.949764 z"
   id="path987"
   style="fill:#bf9706;fill-opacity:1" /><path
   id="path2919"
   d="m 25.444616,37.481853 2.582878,1.909761 4.040499,-5.464619 -2.582878,-1.909761 z"
   style="fill:#ffffff;fill-opacity:1;stroke:url(#radialGradient2975);stroke-width:1px;stroke-linecap:butt;stroke-linejoin:miter;stroke-opacity:1" /><g
   inkscape:label="Layer 2"
   id="layer2"
   inkscape:groupmode="layer"><path
     style="fill:#ffffff;fill-opacity:1;stroke:#fbff00;stroke-width:0.482331;stroke-opacity:1"
     id="path3008"
     d="m 25.200881,48.761336 c -0.0434,0.503544 -0.119047,1.004961 -0.220341,1.501148 -0.0924,0.542674 -0.21596,1.080347 -0.280158,1.62681 -0.05068,0.557161 -0.106649,1.113772 -0.145055,1.671897 -0.03406,0.388767 -0.04037,0.77803 -0.04147,1.167709 0.01961,0.261364 -0.06336,0.512766 -0.103224,0.768371 -0.01194,0.137577 -0.06366,0.295277 0.0037,0.422532 0.961446,-0.38971 1.27666,-0.406185 1.749111,-0.908318 0.138653,-0.147364 0.273375,-0.280623 0.430835,-0.411746 0.468039,-0.384795 0.999726,-0.698369 1.522489,-1.014621 0.108578,-0.06527 0.215895,-0.132382 0.325735,-0.195799 0.111687,-0.06448 0.225667,-0.125473 0.338738,-0.187839 0.114788,-0.06331 0.460624,-0.250917 0.344834,-0.189201 -2.160462,1.151517 -0.763328,0.410073 -0.294182,0.169383 0.880574,-0.448073 1.740633,-0.929973 2.616515,-1.385621 0.382147,-0.198799 -0.762487,0.401083 -1.134056,0.616497 -0.100125,0.05805 0.212328,-0.09579 0.318493,-0.143682 0.929205,-0.390546 1.910921,-0.662528 2.886241,-0.934415 0.991833,-0.300038 2.01722,-0.465036 3.04547,-0.610635 0.714385,-0.103851 1.436172,-0.145925 2.154757,-0.215131 0.557614,-0.04009 1.115073,-0.07055 1.671641,-0.122689 0.361633,-0.03717 0.725316,-0.05319 1.088905,-0.06092 0.194537,-0.0023 0.389179,-0.0013 0.58372,0.0011 0.109635,0.0021 0.219211,0.0037 0.328836,10e-4 0.171314,-0.0018 0.342626,-8.36e-4 0.513957,-0.0011 0.177248,0.007 0.349815,0.06109 0.521471,0.100926 0.252979,0.04938 0.493394,0.132986 0.727968,0.232387 0.335886,0.148259 0.682203,0.27347 1.016026,0.425982 0.451459,0.199627 0.858549,0.460131 1.248673,0.747946 0.456862,0.354342 0.866446,0.759937 1.257856,1.17562 0.411971,0.443875 0.833885,0.878824 1.269233,1.302934 0.296917,0.296899 0.608932,0.580205 0.907275,0.875801 0.154421,0.144254 0.307518,0.29094 0.436145,0.45608 -0.0033,0.01113 -0.003,0.02379 -0.0099,0.03339 -0.04677,0.06502 -0.134001,0.123421 -0.188504,0.18174 -0.07742,0.08284 -0.149699,0.169712 -0.225905,0.253513 -0.299077,0.341646 -0.600268,0.682714 -0.887092,1.033768 -0.360723,0.448454 -0.734284,0.88578 -1.149065,1.292161 -0.629138,0.631632 -1.274553,1.248916 -1.923151,1.86323 -0.902705,0.907929 -1.826307,1.797872 -2.728329,2.706495 -1.205318,1.2332 -2.347992,2.517529 -3.464546,3.820353 -1.005143,1.159923 -1.886094,2.402576 -2.747474,3.656145 -0.759581,1.147944 -1.441437,2.339181 -2.1162,3.53154 -0.521888,0.904749 -1.033495,1.811658 -1.43784,2.767809 -0.237887,0.568728 -0.399505,1.161025 -0.570449,1.749122 -0.117866,0.330308 -0.242984,0.657972 -0.350309,0.991406 -0.03533,0.121641 -0.03602,0.24643 -0.03708,0.371217 -0.02297,0.03844 -0.04423,0.07764 -0.06738,0.115991 0,0 1.583232,-0.676019 1.583232,-0.676019 v 0 c 0.0195,-0.05662 0.03838,-0.112597 0.03636,-0.173096 0.0013,-0.110993 0.01396,-0.221464 0.04444,-0.329087 0.08347,-0.328104 0.201669,-0.647054 0.303555,-0.970401 0.167239,-0.573156 0.303995,-1.155391 0.529384,-1.712446 0.397884,-0.937358 0.883511,-1.835838 1.385541,-2.728494 0.663198,-1.192761 1.349944,-2.375897 2.112917,-3.516595 0.848281,-1.24356 1.713585,-2.477705 2.709998,-3.625262 1.112311,-1.317884 2.276444,-2.595925 3.503201,-3.823574 0.917534,-0.916992 1.863749,-1.808405 2.783964,-2.723061 0.663911,-0.621815 1.328548,-1.243154 1.969779,-1.88535 0.417758,-0.4179 0.80828,-0.857278 1.171454,-1.317327 0.295429,-0.351425 0.60255,-0.694862 0.912077,-1.035586 0.175475,-0.191441 0.462316,-0.396144 0.345569,-0.67306 -0.141456,-0.166436 -0.295154,-0.323804 -0.463053,-0.467675 -0.323232,-0.275652 -0.633366,-0.564251 -0.947451,-0.848775 -0.439694,-0.417116 -0.853682,-0.854166 -1.257487,-1.301398 -0.401258,-0.41838 -0.818555,-0.827209 -1.271759,-1.197357 -0.389733,-0.304109 -0.793025,-0.575417 -1.252815,-0.783038 -0.325001,-0.168033 -0.666465,-0.299887 -1.007145,-0.437174 -0.234917,-0.112431 -0.471255,-0.22759 -0.734705,-0.267102 -0.180167,-0.0435 -0.356463,-0.09912 -0.537796,-0.139178 -0.170043,-2.85e-4 -0.340074,6.51e-4 -0.510096,-0.0013 -0.109723,-0.0031 -0.219444,-0.0016 -0.329202,-5.11e-4 -0.201478,0.0016 -0.402914,0.0028 -0.604354,0.0078 -0.3725,0.0085 -0.744261,0.0281 -1.115194,0.06187 -0.56292,0.0631 -1.126303,0.111924 -1.692706,0.140004 -0.736767,0.06092 -1.472896,0.134024 -2.204199,0.23863 -1.027765,0.148584 -2.059801,0.295412 -3.05357,0.590254 -0.965961,0.269352 -1.933577,0.547055 -2.870059,0.89453 -0.106372,0.04438 -0.216949,0.08092 -0.319115,0.133133 -1.751944,0.895377 -2.516019,1.353185 -0.565174,0.293179 0.09628,-0.05232 -0.196363,0.09836 -0.29408,0.148337 -0.337006,0.172351 -0.304549,0.157547 -0.645588,0.342793 -1.195126,0.6027 -2.376358,1.232821 -3.522742,1.912561 -0.535528,0.325132 -1.077538,0.650269 -1.55014,1.053314 -0.155286,0.138482 -0.299482,0.284274 -0.449959,0.427007 -0.479068,0.454411 -1.017118,0.637329 1.342617,-0.525323 0.003,0.01002 0.005,0.03978 0.0089,0.03007 0.03582,-0.08722 -0.01368,-0.245089 0.02972,-0.33758 0.04172,-0.25694 0.07759,-0.515639 0.06592,-0.776271 0.0031,-0.383258 0.0095,-0.766645 0.02301,-1.149722 0.03132,-0.55692 0.08999,-1.11108 0.15299,-1.665592 0.07134,-0.53941 0.175269,-1.07441 0.268635,-1.610777 0.09482,-0.518758 0.186092,-1.038467 0.275206,-1.557895 0,0 -1.546986,0.732338 -1.546986,0.732338 z" /><path
     style="fill:#ffffff;fill-opacity:1;stroke:#fbff00;stroke-width:0.482331;stroke-opacity:1"
     id="path3010"
     d="m 25.269847,48.793778 c 0.154918,0.269126 0.334575,0.521138 0.522099,0.771323 0.142808,0.174171 0.276276,0.355065 0.482634,0.467283 0.190419,0.06997 0.396419,0.07565 0.598476,0.07982 0.204898,2.86e-4 0.409782,-0.0029 0.614673,-0.0044 0.254713,0.01457 0.505212,-0.01837 0.755621,-0.05781 0.562698,-0.107858 1.123188,-0.22566 1.684668,-0.339495 0.46172,-0.0936 0.919861,-0.202944 1.377257,-0.313295 0.429234,-0.130693 0.864733,-0.240981 1.29979,-0.353321 0.460404,-0.135697 0.928768,-0.239228 1.400698,-0.333216 0.352077,-0.07453 0.710899,-0.107186 1.070837,-0.122647 0.344173,-0.03563 0.687008,-0.08437 1.030747,-0.12634 0.400966,-0.03605 0.795244,-0.109325 1.189592,-0.183139 0.444983,-0.09944 0.896636,-0.16687 1.346934,-0.241093 0.47244,-0.08351 0.940346,-0.187034 1.415263,-0.257906 0.472814,-0.05965 0.95047,-0.07038 1.4269,-0.0768 0.487148,-0.01342 0.974065,0.0084 1.456832,0.06966 0.442388,0.07129 0.887284,0.129 1.32934,0.201744 0.493626,0.07739 0.978393,0.193128 1.459347,0.320676 0.422714,0.108869 0.838354,0.237841 1.262966,0.340447 0.414189,0.09636 0.819735,0.217216 1.218105,0.359319 0.291928,0.102453 0.585711,0.199903 0.885649,0.280097 0.281336,0.09162 0.538693,0.238612 0.79658,0.375599 0.303348,0.1518 0.562995,0.359307 0.828581,0.560021 0.269105,0.230273 0.534718,0.468378 0.765464,0.732681 0.24793,0.304968 0.515914,0.595609 0.764505,0.899939 0.167788,0.227046 0.331301,0.457323 0.487208,0.691607 0.103679,0.120454 0.165529,0.253426 0.222148,0.395507 0.104423,0.214524 0.233306,0.418009 0.357597,0.623038 0.0618,0.100435 0.09404,0.208892 0.101376,0.323575 0.01116,0.07226 0.120123,0.177945 0.09546,0.255276 -0.0043,0.0134 -0.02422,0.01658 -0.03633,0.02487 -0.180173,0.151095 -0.350682,0.304491 -0.55595,0.426918 -0.129834,0.0782 -0.260942,0.151636 -0.390765,0.229529 -0.03662,0.02197 -0.150335,0.08207 -0.112632,0.06174 1.407844,-0.759132 1.837073,-0.955318 1.278716,-0.69726 -0.250265,0.12072 -0.521588,0.192845 -0.78875,0.273124 -0.297161,0.08878 -0.59885,0.160135 -0.902824,0.225015 -0.223744,0.04963 -0.441419,0.118079 -0.661003,0.180766 0,0 -1.369014,0.98257 -1.369014,0.98257 v 0 c 0.224282,-0.06232 0.442378,-0.139634 0.668916,-0.193901 0.301192,-0.08323 0.615167,-0.126564 0.913321,-0.222497 0.263699,-0.07623 0.537115,-0.138854 0.786513,-0.247516 0.771524,-0.296163 1.469581,-0.750974 2.168415,-1.174535 0.20376,-0.14643 0.437912,-0.309013 0.533698,-0.537975 -0.0019,-0.121347 -0.03657,-0.225504 -0.08498,-0.337107 -0.02259,-0.134405 -0.07445,-0.261027 -0.150487,-0.377505 -0.130715,-0.187519 -0.251667,-0.383292 -0.336627,-0.592757 -0.05121,-0.162081 -0.135227,-0.295875 -0.246763,-0.429653 -0.16898,-0.23231 -0.349222,-0.457491 -0.512214,-0.693999 -0.256662,-0.298442 -0.536761,-0.580114 -0.764463,-0.899557 -0.22691,-0.283092 -0.522649,-0.50978 -0.794218,-0.754982 -0.264196,-0.216314 -0.515763,-0.446885 -0.839229,-0.58695 -0.265783,-0.144639 -0.524575,-0.304659 -0.804786,-0.423311 -0.306241,-0.0627 -0.599803,-0.162513 -0.898257,-0.250776 -0.402119,-0.137571 -0.802592,-0.2777 -1.217743,-0.378802 -0.428326,-0.107205 -0.860881,-0.199811 -1.285203,-0.32154 -0.480704,-0.132949 -0.962136,-0.266801 -1.458217,-0.340969 -0.44193,-0.07727 -0.887512,-0.136512 -1.330594,-0.208117 -0.488059,-0.06869 -0.983819,-0.09516 -1.477244,-0.08593 -0.480496,0.0037 -0.961695,0.0073 -1.439602,0.05993 -0.476636,0.0563 -0.942502,0.165363 -1.413575,0.25105 -0.451541,0.07113 -0.904321,0.138478 -1.349638,0.239227 -0.393445,0.0676 -0.784151,0.149341 -1.182551,0.188847 -0.335368,0.04486 -0.674073,0.05576 -1.004406,0.126091 -0.371416,0.01587 -0.743898,0.04001 -1.107729,0.11549 -0.476462,0.09569 -0.954288,0.184124 -1.416422,0.330991 -0.423421,0.116978 -0.855228,0.204878 -1.275355,0.331324 -0.45737,0.154829 -0.947025,0.234011 -1.414874,0.356712 -0.545641,0.114274 -1.095551,0.20636 -1.641868,0.316217 -0.238082,0.04474 -0.476785,0.07665 -0.720197,0.06881 -0.202801,3.03e-4 -0.405604,6.04e-4 -0.608397,0.0024 -0.185126,0.0016 -0.371059,0.0038 -0.554512,-0.02355 -0.205848,-0.06197 -0.318008,-0.242305 -0.455457,-0.386109 -0.194313,-0.249244 -0.381887,-0.497389 -0.500946,-0.787757 0,0 -1.493097,0.823249 -1.493097,0.823249 z" /><path
     style="fill:none;fill-opacity:1;stroke:#fff700;stroke-width:0.482331;stroke-opacity:1"
     id="path3012"
     d="m 48.962372,53.513784 c -0.715628,0.227934 -1.549343,0.774135 -2.073712,1.076667 -0.06948,0.04008 -0.121217,0.102045 -0.182587,0.152272 -0.06627,0.05424 -0.133551,0.107413 -0.200326,0.161119 -0.511934,0.426172 -0.956106,0.914769 -1.457529,1.351772 -0.760788,0.630019 -1.551637,1.227233 -2.346022,1.819971 -0.86617,0.650038 -1.674003,1.361289 -2.456431,2.096053 -0.689752,0.644175 -1.326692,1.335611 -1.935762,2.045921 -0.519737,0.649375 -1.052088,1.289466 -1.600395,1.918246 -0.696718,0.796452 -1.414978,1.576491 -2.131933,2.357247 -0.762315,0.804055 -1.521906,1.609868 -2.237737,2.450202 -0.544737,0.668506 -1.022481,1.380566 -1.467676,2.109024 -0.351731,0.567768 -0.652116,1.160298 -0.968015,1.74527 -0.204078,0.400918 -0.367831,0.817174 -0.532596,1.233026 -0.160756,0.416276 -0.382718,0.807975 -0.568368,1.214514 -0.103818,0.253046 -0.216855,0.501539 -0.292663,0.763397 -0.01386,0.153036 -0.07331,0.293096 -0.112786,0.441811 -0.0053,0.03773 -0.06025,0.04579 -0.07258,0.07827 -0.04492,0.118276 0.116305,0.272406 0.183173,0.358012 0.243228,0.221114 0.46743,0.457293 0.691691,0.694837 0.263967,0.291689 0.553629,0.563363 0.870521,0.805356 0.22359,0.170973 0.474971,0.305077 0.704788,0.468156 0.186269,0.118044 0.360935,0.247332 0.531697,0.384413 0.131981,0.118513 0.297946,0.194725 0.464265,0.26281 0.131006,0.05162 0.270722,0.07659 0.411925,0.08672 0.114211,0.03414 0.227309,0.0692 0.344638,0.09327 0.12135,0.02414 0.236265,0.0723 0.358224,0.09915 0.07101,0.01197 0.03349,0.0029 0.111763,0.02991 0,0 1.44263,-0.898758 1.44263,-0.898758 v 0 c -0.08655,-0.03367 -0.04279,-0.01478 -0.130974,-0.05724 -0.124727,-0.01238 -0.24796,-0.0401 -0.355123,-0.103144 -0.11683,-0.01196 -0.233105,-0.02887 -0.339819,-0.07769 -0.129109,-0.04933 -0.273101,-0.0233 -0.405577,-0.06978 -0.157545,-0.04679 -0.310797,-0.121339 -0.44269,-0.212914 -0.178054,-0.133384 -0.336708,-0.286712 -0.535325,-0.394944 -0.237819,-0.153144 -0.482987,-0.294264 -0.716363,-0.452601 -0.316865,-0.229358 -0.608997,-0.485803 -0.864283,-0.774661 -0.214731,-0.236218 -0.419202,-0.482437 -0.656981,-0.699159 -0.137336,-0.174081 -0.09198,-0.136051 -0.03126,-0.316443 0.03937,-0.145585 0.08569,-0.28849 0.108977,-0.437528 0.06978,-0.249992 0.177837,-0.48833 0.273955,-0.730193 0.18487,-0.405429 0.391349,-0.802444 0.555684,-1.215865 0.170097,-0.406721 0.328028,-0.818088 0.525569,-1.214396 0.29502,-0.581801 0.601504,-1.158671 0.937292,-1.721326 0.443706,-0.718033 0.917221,-1.422048 1.458654,-2.080618 0.704881,-0.82853 1.443759,-1.631205 2.192747,-2.425512 0.742523,-0.789443 1.480248,-1.583183 2.200809,-2.390007 0.541395,-0.628811 1.062931,-1.271635 1.586737,-1.913106 0.609154,-0.700538 1.235857,-1.388538 1.923611,-2.024371 0.779757,-0.734105 1.593963,-1.435983 2.462122,-2.07986 0.800458,-0.598719 1.599331,-1.199867 2.362928,-1.839333 0.508321,-0.45011 0.97911,-0.936546 1.510877,-1.363377 0.06887,-0.05363 0.136428,-0.108758 0.20661,-0.160905 0.491048,-0.364865 0.846451,-0.477642 -1.077094,0.535492 -0.129237,0.06807 0.517907,-0.270601 0.386821,-0.205657 0,0 1.383896,-0.973513 1.383896,-0.973513 z" /></g></svg>
